<svg width="35" height="35" viewBox="0 0 35 35" fill="none" xmlns="http://www.w3.org/2000/svg">
<path fill-rule="evenodd" clip-rule="evenodd" d="M8.75004 4.01025C7.74327 4.01025 6.92712 4.8264 6.92712 5.83317V8.74984C6.92712 9.3539 6.43744 9.84359 5.83337 9.84359C5.22931 9.84359 4.73962 9.3539 4.73962 8.74984V5.83317C4.73962 3.61828 6.53515 1.82275 8.75004 1.82275H17.8794C18.8368 1.82275 19.7625 2.16521 20.4894 2.78824L28.86 9.96305C29.7489 10.725 30.2605 11.8372 30.2605 13.008V29.1665C30.2605 31.3814 28.4649 33.1769 26.25 33.1769H8.75004C6.53515 33.1769 4.73962 31.3814 4.73962 29.1665V14.5832C4.73962 13.9791 5.22931 13.4894 5.83337 13.4894C6.43744 13.4894 6.92712 13.9791 6.92712 14.5832V29.1665C6.92712 30.1733 7.74327 30.9894 8.75004 30.9894H26.25C27.2568 30.9894 28.073 30.1733 28.073 29.1665V13.008C28.073 12.4758 27.8404 11.9702 27.4364 11.6239L19.0658 4.44911C18.7354 4.16592 18.3146 4.01025 17.8794 4.01025H8.75004Z" fill="white"/>
<path fill-rule="evenodd" clip-rule="evenodd" d="M17.8646 8.74967V3.64551H20.0521V8.74967C20.0521 9.75644 20.8683 10.5726 21.875 10.5726H28.4375C29.0416 10.5726 29.5313 11.0623 29.5313 11.6663C29.5313 12.2704 29.0416 12.7601 28.4375 12.7601H21.875C19.6601 12.7601 17.8646 10.9646 17.8646 8.74967Z" fill="white"/>
<path fill-rule="evenodd" clip-rule="evenodd" d="M9.11462 17.5C9.11462 16.8959 9.60431 16.4062 10.2084 16.4062H21.875C22.4791 16.4062 22.9688 16.8959 22.9688 17.5C22.9688 18.1041 22.4791 18.5938 21.875 18.5938H10.2084C9.60431 18.5938 9.11462 18.1041 9.11462 17.5Z" fill="white"/>
<path fill-rule="evenodd" clip-rule="evenodd" d="M9.11462 21.875C9.11462 21.2709 9.60431 20.7812 10.2084 20.7812H16.7709C17.3749 20.7812 17.8646 21.2709 17.8646 21.875C17.8646 22.4791 17.3749 22.9688 16.7709 22.9688H10.2084C9.60431 22.9688 9.11462 22.4791 9.11462 21.875Z" fill="white"/>
<path fill-rule="evenodd" clip-rule="evenodd" d="M9.11462 26.25C9.11462 25.6459 9.60431 25.1562 10.2084 25.1562H20.4167C21.0208 25.1562 21.5105 25.6459 21.5105 26.25C21.5105 26.8541 21.0208 27.3438 20.4167 27.3438H10.2084C9.60431 27.3438 9.11462 26.8541 9.11462 26.25Z" fill="white"/>
</svg>
