<svg width="35" height="35" viewBox="0 0 35 35" fill="none" xmlns="http://www.w3.org/2000/svg">
<path fill-rule="evenodd" clip-rule="evenodd" d="M17.5 30.9893C16.0881 30.9893 14.729 30.7727 13.4527 30.3719C12.8764 30.1909 12.2625 30.5113 12.0815 31.0876C11.9005 31.6639 12.2209 32.2779 12.7972 32.4589C14.2831 32.9256 15.8633 33.1768 17.5 33.1768C26.1582 33.1768 33.177 26.1579 33.177 17.4997C33.177 8.84146 26.1582 1.82259 17.5 1.82259C8.84174 1.82259 1.82288 8.84146 1.82288 17.4997C1.82288 21.8849 3.62485 25.8513 6.52595 28.6953C6.95731 29.1182 7.6498 29.1113 8.07267 28.6799C8.49554 28.2486 8.48866 27.5561 8.0573 27.1332C5.55859 24.6837 4.01038 21.2735 4.01038 17.4997C4.01038 10.0496 10.0499 4.01009 17.5 4.01009C24.95 4.01009 30.9895 10.0496 30.9895 17.4997C30.9895 24.9498 24.95 30.9893 17.5 30.9893Z" fill="white"/>
<path fill-rule="evenodd" clip-rule="evenodd" d="M16.3658 9.68164C15.359 9.68164 14.5428 10.4978 14.5428 11.5046V13.449C14.5428 14.0531 14.0532 14.5428 13.4491 14.5428C12.845 14.5428 12.3553 14.0531 12.3553 13.449V11.5046C12.3553 9.28966 14.1509 7.49414 16.3658 7.49414H18.6343C20.8492 7.49414 22.6447 9.28967 22.6447 11.5046V13.8612C22.6447 14.9249 22.2222 15.9449 21.4701 16.697L19.1277 19.0394C18.7858 19.3813 18.5938 19.845 18.5938 20.3284V23.1712C18.5938 23.7753 18.1041 24.265 17.5 24.265C16.896 24.265 16.4063 23.7753 16.4063 23.1712V20.3284C16.4063 19.2648 16.8288 18.2447 17.5809 17.4926L19.9233 15.1502C20.2651 14.8084 20.4572 14.3447 20.4572 13.8612V11.5046C20.4572 10.4978 19.6411 9.68164 18.6343 9.68164H16.3658Z" fill="white"/>
<path fill-rule="evenodd" clip-rule="evenodd" d="M17.5 25.2217C18.1041 25.2217 18.5938 25.7114 18.5938 26.3154V28.0323C18.5938 28.6363 18.1041 29.126 17.5 29.126C16.8959 29.126 16.4062 28.6363 16.4062 28.0323V26.3154C16.4062 25.7114 16.8959 25.2217 17.5 25.2217Z" fill="white"/>
</svg>
