<svg width="35" height="35" viewBox="0 0 35 35" fill="none" xmlns="http://www.w3.org/2000/svg">
<path fill-rule="evenodd" clip-rule="evenodd" d="M18.6863 6.52479C18.0036 5.93965 16.9963 5.93965 16.3136 6.52479L9.02195 12.7748C8.61791 13.1211 8.38538 13.6267 8.38538 14.1589V27.4007C8.38538 28.4075 9.20152 29.2236 10.2083 29.2236H17.5C18.104 29.2236 18.5937 29.7133 18.5937 30.3174C18.5937 30.9214 18.104 31.4111 17.5 31.4111H10.2083C7.9934 31.4111 6.19788 29.6156 6.19788 27.4007V14.1589C6.19788 12.9881 6.70946 11.8758 7.59835 11.1139L14.89 4.86392C16.3919 3.57661 18.608 3.57661 20.1099 4.86392L27.4016 11.1139C28.2905 11.8758 28.802 12.9881 28.802 14.1589V27.4007C28.802 29.6156 27.0065 31.4111 24.7916 31.4111H23.3333C22.7292 31.4111 22.2395 30.9214 22.2395 30.3174C22.2395 29.7133 22.7292 29.2236 23.3333 29.2236H24.7916C25.7984 29.2236 26.6145 28.4075 26.6145 27.4007V14.1589C26.6145 13.6267 26.382 13.1211 25.978 12.7748L18.6863 6.52479Z" fill="#72A5E7"/>
<path fill-rule="evenodd" clip-rule="evenodd" d="M18.6741 6.20491C17.9956 5.63352 17.0043 5.63352 16.3257 6.20492L4.3503 16.2895C3.88825 16.6786 3.19825 16.6194 2.80915 16.1574C2.42006 15.6953 2.4792 15.0053 2.94125 14.6163L14.9167 4.53167C16.4095 3.2746 18.5904 3.2746 20.0832 4.53167L32.0586 14.6163C32.5207 15.0053 32.5798 15.6953 32.1907 16.1574C31.8016 16.6194 31.1116 16.6786 30.6496 16.2895L18.6741 6.20491Z" fill="#72A5E7"/>
<path fill-rule="evenodd" clip-rule="evenodd" d="M16.7708 19.7441C15.764 19.7441 14.9479 20.5603 14.9479 21.5671V27.4004H12.7604V21.5671C12.7604 19.3522 14.5559 17.5566 16.7708 17.5566H18.2291C20.444 17.5566 22.2395 19.3522 22.2395 21.5671V27.4004H20.052V21.5671C20.052 20.5603 19.2359 19.7441 18.2291 19.7441H16.7708Z" fill="#72A5E7"/>
</svg>
