<svg width="35" height="35" viewBox="0 0 35 35" fill="none" xmlns="http://www.w3.org/2000/svg">
<path fill-rule="evenodd" clip-rule="evenodd" d="M22.9688 17.5C22.9688 16.8959 22.4791 16.4062 21.875 16.4062H4.375C3.77094 16.4062 3.28125 16.8959 3.28125 17.5C3.28125 18.1041 3.77094 18.5938 4.375 18.5938H21.875C22.4791 18.5938 22.9688 18.1041 22.9688 17.5Z" fill="white"/>
<path fill-rule="evenodd" clip-rule="evenodd" d="M10.2525 11.6226C9.82539 11.1955 9.13286 11.1955 8.70573 11.6226L3.60156 16.7268C3.17443 17.1539 3.17443 17.8464 3.60156 18.2736L8.70573 23.3777C9.13286 23.8049 9.82539 23.8049 10.2525 23.3777C10.6797 22.9506 10.6797 22.2581 10.2525 21.8309L5.92176 17.5002L10.2525 13.1694C10.6797 12.7423 10.6797 12.0497 10.2525 11.6226Z" fill="white"/>
<path fill-rule="evenodd" clip-rule="evenodd" d="M12.0312 5.8335C12.0312 5.22943 12.5209 4.73975 13.125 4.73975H30.625C31.2291 4.73975 31.7188 5.22943 31.7188 5.8335V20.4168C31.7188 21.0209 31.2291 21.5106 30.625 21.5106C30.0209 21.5106 29.5312 21.0209 29.5312 20.4168V6.92725H14.2188V10.2085C14.2188 10.8126 13.7291 11.3022 13.125 11.3022C12.5209 11.3022 12.0312 10.8126 12.0312 10.2085V5.8335ZM13.125 23.6981C13.7291 23.6981 14.2188 24.1878 14.2188 24.7918V28.0731H29.5312V26.2502C29.5312 25.6461 30.0209 25.1564 30.625 25.1564C31.2291 25.1564 31.7188 25.6461 31.7188 26.2502V29.1668C31.7188 29.7709 31.2291 30.2606 30.625 30.2606H13.125C12.5209 30.2606 12.0312 29.7709 12.0312 29.1668V24.7918C12.0312 24.1878 12.5209 23.6981 13.125 23.6981Z" fill="white"/>
</svg>
