<svg width="35" height="35" viewBox="0 0 35 35" fill="none" xmlns="http://www.w3.org/2000/svg">
<path d="M27.7083 24.7915V17.2082C26.9792 17.354 26.25 17.4998 25.5208 17.4998H24.7917V26.2498H10.2083V16.0415C10.2083 11.9582 13.4167 8.74984 17.5 8.74984C17.6458 6.854 18.5208 5.24984 19.6875 3.93734C19.25 3.354 18.375 2.9165 17.5 2.9165C15.8958 2.9165 14.5833 4.229 14.5833 5.83317V6.27067C10.2083 7.58317 7.29167 11.5207 7.29167 16.0415V24.7915L4.375 27.7082V29.1665H30.625V27.7082L27.7083 24.7915ZM14.5833 30.6248C14.5833 32.229 15.8958 33.5415 17.5 33.5415C19.1042 33.5415 20.4167 32.229 20.4167 30.6248H14.5833ZM30.625 9.479C30.625 12.2498 28.2917 14.5832 25.5208 14.5832C22.75 14.5832 20.4167 12.2498 20.4167 9.479C20.4167 6.70817 22.75 4.37484 25.5208 4.37484C28.2917 4.37484 30.625 6.70817 30.625 9.479Z" fill="white"/>
<circle cx="25.5" cy="9.5" r="5.5" fill="#2E2E2E"/>
</svg>
