<svg width="99" height="99" viewBox="0 0 99 99" fill="none" xmlns="http://www.w3.org/2000/svg">
<path d="M32.4844 26.297C32.4753 28.2901 33.0246 30.246 34.0699 31.9431C31.4654 33.1745 29.4564 35.3898 28.4847 38.1019C27.5129 40.8141 27.658 43.8011 28.8879 46.4064L13.9219 46.4064C11.0501 46.4064 8.2959 47.5472 6.26523 49.5778C4.23457 51.6085 3.09375 54.3627 3.09375 57.2345C3.09375 60.1063 4.23457 62.8605 6.26523 64.8911C8.2959 66.9218 11.0501 68.0626 13.9219 68.0626L49.268 68.0626L44.5887 70.7696C42.0912 72.1901 40.2604 74.5446 39.4989 77.315C38.7374 80.0854 39.1076 83.0449 40.5281 85.5423C41.9486 88.0397 44.3031 89.8706 47.0735 90.6321C49.8439 91.3936 52.8033 91.0234 55.3008 89.6028C81.7523 77.0345 92.8125 68.6814 92.8125 49.5001C92.8023 40.4776 89.2136 31.8276 82.8337 25.4477C76.4538 19.0678 67.8038 15.4791 58.7812 15.4689L43.3125 15.4689C40.4438 15.479 37.6956 16.6231 35.6671 18.6516C33.6387 20.6801 32.4946 23.4283 32.4844 26.297ZM58.7812 21.6564C66.1627 21.6666 73.2389 24.6034 78.4584 29.8229C83.678 35.0424 86.6148 42.1186 86.625 49.5001C86.625 57.3118 84.498 62.7259 79.5867 67.6759C74.6754 72.6259 66.9023 77.2278 52.5551 84.0341L52.323 84.1501C51.7989 84.4628 51.2164 84.6652 50.6113 84.745C50.0062 84.8248 49.3912 84.7803 48.8039 84.6142C48.2123 84.4606 47.6576 84.1898 47.1726 83.8178C46.6877 83.4458 46.2824 82.9802 45.9809 82.4485C45.3659 81.3833 45.199 80.1176 45.5168 78.9294C45.6709 78.343 45.9422 77.794 46.3144 77.3154C46.6867 76.8369 47.152 76.4387 47.6824 76.145L62.3777 67.6372C62.9611 67.2904 63.416 66.7635 63.6741 66.1358C63.9321 65.5081 63.9793 64.8136 63.8086 64.1567C63.6366 63.4995 63.2504 62.9183 62.7112 62.5051C62.1719 62.0918 61.5102 61.8702 60.8309 61.8751L13.9219 61.8751C12.6911 61.8751 11.5107 61.3862 10.6405 60.5159C9.77017 59.6456 9.28125 58.4653 9.28125 57.2345C9.28125 56.0037 9.77017 54.8233 10.6405 53.9531C11.5107 53.0828 12.6911 52.5939 13.9219 52.5939L40.2187 52.5939C41.0393 52.5939 41.8262 52.2679 42.4064 51.6877C42.9866 51.1075 43.3125 50.3206 43.3125 49.5001C43.3125 48.6796 42.9866 47.8927 42.4064 47.3125C41.8262 46.7323 41.0393 46.4064 40.2187 46.4064L38.6719 46.4064C37.4411 46.4064 36.2607 45.9174 35.3905 45.0471C34.5202 44.1769 34.0312 42.9965 34.0312 41.7657C34.0312 40.535 34.5202 39.3546 35.3905 38.4843C36.2607 37.614 37.4411 37.1251 38.6719 37.1251L43.3125 37.1251C44.133 37.1251 44.9199 36.7992 45.5001 36.219C46.0803 35.6388 46.4062 34.8519 46.4062 34.0314C46.4062 33.2108 46.0803 32.4239 45.5001 31.8437C44.9199 31.2636 44.133 30.9376 43.3125 30.9376C42.0817 30.9376 40.9014 30.4487 40.0311 29.5784C39.1608 28.7081 38.6719 27.5278 38.6719 26.297C38.6719 25.0662 39.1608 23.8859 40.0311 23.0156C40.9014 22.1453 42.0817 21.6564 43.3125 21.6564L58.7812 21.6564Z" fill="#72A5E7"/>
</svg>
