<svg width="31" height="31" viewBox="0 0 31 31" fill="none" xmlns="http://www.w3.org/2000/svg">
<path fill-rule="evenodd" clip-rule="evenodd" d="M8.07288 15.5C8.07288 14.965 8.5066 14.5312 9.04163 14.5312H12.1093C12.6444 14.5312 13.0781 14.965 13.0781 15.5C13.0781 16.035 12.6444 16.4688 12.1093 16.4688H9.04163C8.5066 16.4688 8.07288 16.035 8.07288 15.5ZM14.2083 15.5C14.2083 14.965 14.642 14.5312 15.177 14.5312H21.3125C21.8475 14.5312 22.2812 14.965 22.2812 15.5C22.2812 16.035 21.8475 16.4688 21.3125 16.4688H15.177C14.642 16.4688 14.2083 16.035 14.2083 15.5Z" fill="white"/>
<path fill-rule="evenodd" clip-rule="evenodd" d="M16.7525 10.294C17.1308 9.91567 17.7442 9.91567 18.1225 10.294L22.6433 14.8148C23.0217 15.1931 23.0217 15.8065 22.6433 16.1848L18.1225 20.7057C17.7442 21.084 17.1308 21.084 16.7525 20.7057C16.3742 20.3274 16.3742 19.714 16.7525 19.3357L20.5883 15.4998L16.7525 11.664C16.3742 11.2857 16.3742 10.6723 16.7525 10.294Z" fill="white"/>
</svg>
