<svg width="35" height="35" viewBox="0 0 35 35" fill="none" xmlns="http://www.w3.org/2000/svg">
<path fill-rule="evenodd" clip-rule="evenodd" d="M14.5833 5.46875C9.54949 5.46875 5.46875 9.54949 5.46875 14.5833C5.46875 15.4901 5.60082 16.364 5.84605 17.188C6.01836 17.767 5.6887 18.376 5.10973 18.5483C4.53077 18.7206 3.92174 18.391 3.74943 17.812C3.44457 16.7877 3.28125 15.7036 3.28125 14.5833C3.28125 8.34136 8.34136 3.28125 14.5833 3.28125C20.8253 3.28125 25.8854 8.34136 25.8854 14.5833C25.8854 20.8253 20.8253 25.8854 14.5833 25.8854C12.1835 25.8854 9.95537 25.1362 8.12427 23.859C7.62883 23.5134 7.50734 22.8316 7.85292 22.3362C8.1985 21.8407 8.88029 21.7192 9.37573 22.0648C10.8516 23.0943 12.6454 23.6979 14.5833 23.6979C19.6172 23.6979 23.6979 19.6172 23.6979 14.5833C23.6979 9.54949 19.6172 5.46875 14.5833 5.46875Z" fill="#2E2E2E" fill-opacity="0.5"/>
<path fill-rule="evenodd" clip-rule="evenodd" d="M13.4896 8.02075C13.4896 7.41669 13.9793 6.927 14.5834 6.927C18.8118 6.927 22.2396 10.3548 22.2396 14.5833C22.2396 15.1873 21.7499 15.677 21.1459 15.677C20.5418 15.677 20.0521 15.1873 20.0521 14.5833C20.0521 11.5629 17.6037 9.1145 14.5834 9.1145C13.9793 9.1145 13.4896 8.62481 13.4896 8.02075Z" fill="#2E2E2E" fill-opacity="0.5"/>
<path fill-rule="evenodd" clip-rule="evenodd" d="M21.1016 21.1016C21.5287 20.6745 22.2213 20.6745 22.6484 21.1016L31.3984 29.8516C31.8255 30.2787 31.8255 30.9713 31.3984 31.3984C30.9713 31.8255 30.2787 31.8255 29.8516 31.3984L21.1016 22.6484C20.6745 22.2213 20.6745 21.5287 21.1016 21.1016Z" fill="#2E2E2E" fill-opacity="0.5"/>
</svg>
