<svg width="35" height="35" viewBox="0 0 35 35" fill="none" xmlns="http://www.w3.org/2000/svg">
<path fill-rule="evenodd" clip-rule="evenodd" d="M14.2188 4.375C14.2188 3.77094 14.7084 3.28125 15.3125 3.28125H19.6875C20.2916 3.28125 20.7812 3.77094 20.7812 4.375V6.68189C21.4965 6.89856 22.1816 7.18413 22.8289 7.53076L24.4606 5.89903C24.8877 5.47189 25.5802 5.47189 26.0074 5.89903L29.101 8.99262C29.3061 9.19774 29.4213 9.47594 29.4213 9.76602C29.4213 10.0561 29.3061 10.3343 29.101 10.5394L27.4692 12.1712C27.8159 12.8184 28.1014 13.5035 28.3181 14.2188H30.625C31.2291 14.2188 31.7188 14.7084 31.7188 15.3125V19.6875C31.7188 20.2916 31.2291 20.7812 30.625 20.7812H28.3181C28.1014 21.4965 27.8159 22.1816 27.4692 22.8288L29.101 24.4606C29.5281 24.8877 29.5281 25.5802 29.101 26.0074L26.0074 29.101C25.5802 29.5281 24.8877 29.5281 24.4606 29.101L22.8288 27.4692C22.1816 27.8159 21.4965 28.1014 20.7812 28.3181V30.625C20.7812 31.2291 20.2916 31.7188 19.6875 31.7188H15.3125C14.7084 31.7188 14.2188 31.2291 14.2188 30.625V28.3181C13.5035 28.1014 12.8184 27.8159 12.1712 27.4692L10.5394 29.101C10.3343 29.3061 10.0561 29.4213 9.76602 29.4213C9.47594 29.4213 9.19774 29.3061 8.99262 29.101L5.89903 26.0074C5.47189 25.5802 5.47189 24.8877 5.89903 24.4606L7.53076 22.8289C7.18413 22.1816 6.89856 21.4965 6.68189 20.7812H4.375C3.77094 20.7812 3.28125 20.2916 3.28125 19.6875V15.3125C3.28125 14.7084 3.77094 14.2188 4.375 14.2188H6.68189C6.89856 13.5035 7.18413 12.8184 7.53076 12.1712L5.89903 10.5394C5.47189 10.1123 5.47189 9.41976 5.89903 8.99262L8.99262 5.89903C9.41976 5.47189 10.1123 5.47189 10.5394 5.89903L12.1712 7.53076C12.8184 7.18413 13.5035 6.89856 14.2188 6.68189V4.375ZM16.4062 5.46875V7.52659C16.4062 8.04075 16.0481 8.4855 15.5458 8.59517C14.4774 8.82843 13.4787 9.24933 12.5858 9.82218C12.153 10.0998 11.5853 10.0385 11.2218 9.67499L9.76602 8.21922L8.21922 9.76602L9.67499 11.2218C10.0385 11.5853 10.0998 12.153 9.82218 12.5858C9.24933 13.4787 8.82843 14.4774 8.59517 15.5458C8.4855 16.0481 8.04075 16.4062 7.52659 16.4062H5.46875V18.5938H7.52659C8.04075 18.5938 8.4855 18.9519 8.59517 19.4542C8.82843 20.5226 9.24933 21.5213 9.82218 22.4142C10.0998 22.847 10.0385 23.4147 9.67499 23.7782L8.21922 25.234L9.76602 26.7808L11.2218 25.325C11.5853 24.9615 12.153 24.9002 12.5858 25.1778C13.4787 25.7507 14.4774 26.1716 15.5458 26.4048C16.0481 26.5145 16.4062 26.9592 16.4062 27.4734V29.5312H18.5938V27.4734C18.5938 26.9592 18.9519 26.5145 19.4542 26.4048C20.5226 26.1716 21.5213 25.7507 22.4142 25.1778C22.847 24.9002 23.4147 24.9615 23.7782 25.325L25.234 26.7808L26.7808 25.234L25.325 23.7782C24.9615 23.4147 24.9002 22.847 25.1778 22.4142C25.7507 21.5213 26.1716 20.5226 26.4048 19.4542C26.5145 18.9519 26.9592 18.5938 27.4734 18.5938H29.5312V16.4062H27.4734C26.9592 16.4062 26.5145 16.0481 26.4048 15.5458C26.1716 14.4774 25.7507 13.4787 25.1778 12.5858C24.9002 12.153 24.9615 11.5853 25.325 11.2218L26.7808 9.76602L25.234 8.21922L23.7782 9.67499C23.4147 10.0385 22.847 10.0998 22.4142 9.82218C21.5213 9.24933 20.5226 8.82843 19.4542 8.59517C18.9519 8.4855 18.5938 8.04075 18.5938 7.52659V5.46875H16.4062Z" fill="white"/>
<path fill-rule="evenodd" clip-rule="evenodd" d="M17.2511 20.7812C19.0633 20.7812 20.5323 19.3122 20.5323 17.5C20.5323 15.6878 19.0633 14.2188 17.2511 14.2188C16.8656 14.2188 16.498 14.2848 16.1573 14.4052C15.5877 14.6065 14.9628 14.308 14.7615 13.7384C14.5602 13.1689 14.8587 12.544 15.4283 12.3427C15.9999 12.1407 16.6139 12.0312 17.2511 12.0312C20.2714 12.0312 22.7198 14.4797 22.7198 17.5C22.7198 20.5203 20.2714 22.9688 17.2511 22.9688C14.8683 22.9688 12.844 21.4454 12.0938 19.3228C11.8925 18.7533 12.191 18.1284 12.7606 17.9271C13.3301 17.7258 13.955 18.0243 14.1563 18.5938C14.6072 19.8697 15.8241 20.7812 17.2511 20.7812Z" fill="white"/>
</svg>
