<svg width="35" height="35" viewBox="0 0 35 35" fill="none" xmlns="http://www.w3.org/2000/svg">
<path fill-rule="evenodd" clip-rule="evenodd" d="M3.28125 11.6667C3.28125 9.45178 5.07677 7.65625 7.29167 7.65625H21.1458C23.3607 7.65625 25.1562 9.45177 25.1562 11.6667V12.9003L30.1808 10.6672C30.5191 10.5168 30.9106 10.5478 31.221 10.7496C31.5314 10.9513 31.7188 11.2964 31.7188 11.6667V23.3333C31.7188 23.7036 31.5314 24.0487 31.221 24.2504C30.9106 24.4522 30.5191 24.4832 30.1808 24.3328L25.1562 22.0997V23.3333C25.1562 25.5482 23.3607 27.3438 21.1458 27.3438H7.29167C5.07677 27.3438 3.28125 25.5482 3.28125 23.3333V18.9583C3.28125 18.3543 3.77094 17.8646 4.375 17.8646C4.97906 17.8646 5.46875 18.3543 5.46875 18.9583V23.3333C5.46875 24.3401 6.2849 25.1562 7.29167 25.1562H21.1458C22.1526 25.1562 22.9688 24.3401 22.9688 23.3333V21.5387C22.9688 20.2195 24.3266 19.3371 25.532 19.8729L29.5312 21.6503V13.3497L25.532 15.1271C24.3266 15.6629 22.9688 14.7805 22.9688 13.4613V11.6667C22.9688 10.6599 22.1526 9.84375 21.1458 9.84375H7.29167C6.2849 9.84375 5.46875 10.6599 5.46875 11.6667V13.125C5.46875 13.7291 4.97906 14.2188 4.375 14.2188C3.77094 14.2188 3.28125 13.7291 3.28125 13.125V11.6667Z" fill="white"/>
<path fill-rule="evenodd" clip-rule="evenodd" d="M7.65625 13.125C7.65625 12.5209 8.14594 12.0312 8.75 12.0312H14.5833C15.1874 12.0312 15.6771 12.5209 15.6771 13.125C15.6771 13.7291 15.1874 14.2188 14.5833 14.2188H8.75C8.14594 14.2188 7.65625 13.7291 7.65625 13.125Z" fill="white"/>
</svg>
